<svg width="87" height="26" viewBox="0 0 87 26" fill="none" xmlns="http://www.w3.org/2000/svg">
<g clip-path="url(#clip0_17_347)">
<path d="M25.0049 18.1506C24.8695 17.8462 24.7425 17.5261 24.6071 17.2528L23.9807 15.9491L23.9553 15.9257C22.093 12.1785 20.1037 8.3688 17.996 4.62157L17.9113 4.46543C17.6997 4.09852 17.4881 3.69257 17.268 3.31785C16.9971 2.87286 16.7347 2.39665 16.303 1.94386C15.8822 1.4701 15.3525 1.08839 14.7524 0.826294C14.1522 0.564196 13.4964 0.428242 12.8323 0.428242C12.1683 0.428242 11.5125 0.564196 10.9123 0.826294C10.3121 1.08839 9.78253 1.4701 9.36171 1.94386C8.96386 2.39665 8.66759 2.87286 8.39671 3.31785C8.18509 3.7238 7.97346 4.12194 7.75337 4.48885L7.66872 4.64499C5.59481 8.39222 3.57169 12.2019 1.7094 15.9491L1.65861 15.996C1.47238 16.4019 1.2523 16.8235 1.04067 17.2763C0.905233 17.5495 0.769794 17.8462 0.634355 18.174C0.268697 19.0326 0.151931 19.9642 0.295565 20.8771C0.439198 21.79 0.838274 22.6526 1.45346 23.3799C2.06865 24.1072 2.87871 24.6741 3.80382 25.0248C4.72893 25.3755 5.73715 25.4978 6.72912 25.3797C7.68013 25.2642 8.59587 24.9721 9.42097 24.5209C10.5214 23.951 11.5795 23.1235 12.7646 21.9291C13.9497 23.1235 15.0332 23.951 16.1083 24.5287C17.1421 25.0883 18.3128 25.3972 19.5112 25.4265C20.8989 25.4318 22.2418 24.9739 23.292 24.1374C24.3422 23.3008 25.0288 22.1421 25.225 20.8752C25.4517 19.9647 25.375 19.0124 25.0049 18.1428V18.1506ZM12.8493 19.4465C11.3933 17.7291 10.4452 16.1521 10.1236 14.8015C9.99029 14.3011 9.96156 13.7818 10.0389 13.2714C10.0982 12.8733 10.259 12.522 10.4791 12.2253C10.987 11.5461 11.8758 11.1246 12.8493 11.1246C13.3116 11.1115 13.7701 11.2046 14.1838 11.3953C14.5975 11.5861 14.9534 11.8686 15.2195 12.2175C15.4395 12.5298 15.6004 12.8733 15.6512 13.2714C15.7358 13.7242 15.702 14.2473 15.5665 14.8015C15.2449 16.1287 14.2968 17.7213 12.8493 19.4465ZM23.6336 20.6019C23.5374 21.2452 23.2602 21.8539 22.8295 22.3676C22.3988 22.8812 21.8296 23.2818 21.1788 23.5295C20.5354 23.7793 19.8244 23.8495 19.1303 23.7793C18.4531 23.7012 17.7759 23.4982 17.0817 23.1235C15.9292 22.4666 14.8929 21.6504 14.009 20.7034C15.7866 18.6737 16.8617 16.8235 17.268 15.1763C17.4627 14.3956 17.4881 13.693 17.4034 13.045C17.2977 12.4309 17.0494 11.845 16.6754 11.3275C16.2485 10.7664 15.6785 10.3107 15.0158 10.0003C14.3531 9.68995 13.6178 9.53449 12.8747 9.54761C11.3087 9.54761 9.91193 10.219 9.06544 11.3197C8.68438 11.8359 8.43811 12.4264 8.34592 13.045C8.23588 13.7008 8.26127 14.4268 8.48136 15.1763C8.88768 16.8235 9.98812 18.6971 11.7404 20.719C10.8714 21.6841 9.83267 22.5075 8.66759 23.1547C7.965 23.5295 7.29627 23.7246 6.61907 23.8027C5.56593 23.9271 4.50211 23.6631 3.65885 23.0682C2.81558 22.4732 2.26102 21.5953 2.11572 20.6254C2.03107 20.0008 2.09033 19.3763 2.3612 18.6737C2.44585 18.4239 2.57283 18.174 2.70827 17.8774C2.8945 17.4714 3.11458 17.0499 3.32621 16.6283L3.36007 16.5737C5.1885 12.8499 7.18622 9.04798 9.26013 5.32417L9.34478 5.16804C9.55641 4.79332 9.76803 4.39517 9.98812 4.02045C10.2082 3.62231 10.4452 3.23978 10.75 2.92751C11.0137 2.63712 11.3433 2.40358 11.7155 2.24334C12.0878 2.0831 12.4935 2.00006 12.9043 2.00006C13.3151 2.00006 13.7208 2.0831 14.093 2.24334C14.4652 2.40358 14.7948 2.63712 15.0586 2.92751C15.3549 3.23978 15.6004 3.62231 15.8205 4.02045C16.0321 4.39517 16.2437 4.80112 16.4638 5.16804L16.5485 5.32417C18.6139 9.04798 20.6116 12.8499 22.4739 16.5737L22.4993 16.5971C22.7194 17.003 22.9056 17.4558 23.1173 17.8462C23.2527 18.1506 23.3881 18.3926 23.4728 18.6503C23.6336 19.3529 23.7183 19.9774 23.6336 20.6019ZM35.4168 19.2748C34.7789 19.2834 34.1472 19.1594 33.5683 18.9121C32.9895 18.6648 32.4785 18.3005 32.0732 17.8462C31.1624 16.8781 30.679 15.6299 30.7188 14.3487C30.7048 13.0397 31.2038 11.7701 32.124 10.7733C32.5496 10.3132 33.0794 9.94469 33.6761 9.69381C34.2728 9.44293 34.9219 9.31575 35.5776 9.32122C36.1947 9.30564 36.8059 9.43504 37.3538 9.69724C37.9017 9.95945 38.3683 10.3458 38.7097 10.8201L38.7943 9.59445H41.2661V19.025H38.7859L38.7012 17.651C38.3492 18.1574 37.8627 18.5724 37.2879 18.8566C36.713 19.1408 36.069 19.2847 35.4168 19.2748ZM36.0602 17.0265C36.5511 17.0265 36.9828 16.9015 37.3891 16.6752C37.7616 16.4253 38.0663 16.0975 38.3034 15.6993C38.515 15.3012 38.625 14.825 38.625 14.2941C38.658 13.833 38.5607 13.372 38.3426 12.956C38.1245 12.54 37.793 12.1833 37.3807 11.9209C36.9845 11.6932 36.527 11.5725 36.0602 11.5725C35.5933 11.5725 35.1358 11.6932 34.7396 11.9209C34.3672 12.1707 34.0624 12.4986 33.8254 12.8967C33.6016 13.3358 33.4914 13.8168 33.5037 14.3019C33.4707 14.763 33.5681 15.2241 33.7862 15.64C34.0043 16.056 34.3357 16.4127 34.7481 16.6752C35.1459 16.9015 35.5776 17.0265 36.0602 17.0265ZM45.4986 7.04946C45.4986 7.3227 45.4478 7.57251 45.3123 7.77549C45.1769 7.97065 44.9907 8.15021 44.7452 8.27512C44.4997 8.40002 44.2373 8.44686 43.9664 8.44686C43.6955 8.44686 43.4247 8.40002 43.1792 8.27512C42.947 8.15592 42.7518 7.98392 42.612 7.77549C42.4809 7.5531 42.4166 7.30245 42.4258 7.04946C42.4258 6.76842 42.485 6.5186 42.612 6.32343C42.7475 6.08923 42.9422 5.94871 43.1792 5.8238C43.4247 5.6989 43.6871 5.64425 43.9664 5.64425C44.2359 5.63852 44.5023 5.69738 44.7397 5.81506C44.9771 5.93274 45.1773 6.10521 45.3208 6.31563C45.444 6.54323 45.505 6.79515 45.4986 7.04946ZM42.6205 18.9937V9.57884H45.3123V19.0094H42.612L42.6205 18.9937ZM52.5075 12.0458V12.077C52.3806 12.0223 52.2113 11.9989 52.0843 11.9755C51.915 11.9443 51.7796 11.9443 51.6187 11.9443C50.8653 11.9443 50.2982 12.1473 49.9257 12.5688C49.5194 12.9982 49.3332 13.5993 49.3332 14.3722V19.0016H46.6329V9.57103H49.1131L49.1977 10.9997C49.4686 10.5 49.7903 10.1253 50.2474 9.84427C50.7021 9.5712 51.2374 9.43483 51.7796 9.45393C51.9742 9.45393 52.1605 9.46955 52.3213 9.50077C52.406 9.52419 52.4567 9.52419 52.5075 9.54761V12.0458ZM53.591 18.9937V5.7067H56.2829V10.7811C56.6638 10.3283 57.0955 9.97698 57.6373 9.70375C58.495 9.31593 59.4693 9.20593 60.4031 9.39147C61.3368 9.57702 62.1756 10.0473 62.784 10.7264C63.6968 11.6965 64.1803 12.9478 64.1384 14.2316C64.1523 15.5407 63.6533 16.8103 62.7332 17.8071C62.3076 18.2672 61.7778 18.6357 61.181 18.8866C60.5843 19.1375 59.9353 19.2646 59.2795 19.2592C58.6625 19.2748 58.0513 19.1454 57.5034 18.8832C56.9555 18.6209 56.4889 18.2345 56.1475 17.7603L56.0628 18.9859L53.591 19.0094V18.9937ZM58.797 17.0265C59.2795 17.0265 59.7112 16.9015 60.1175 16.6752C60.49 16.4253 60.7947 16.0975 61.0317 15.6993C61.2518 15.3012 61.3534 14.825 61.3534 14.2941C61.3534 13.7711 61.2518 13.2948 61.0317 12.8967C60.8094 12.5128 60.4971 12.1794 60.1175 11.9209C59.7213 11.6932 59.2638 11.5725 58.797 11.5725C58.3302 11.5725 57.8727 11.6932 57.4765 11.9209C57.0955 12.1707 56.7993 12.4986 56.5538 12.8967C56.3299 13.3358 56.2198 13.8168 56.2321 14.3019C56.1991 14.763 56.2964 15.2241 56.5145 15.64C56.7327 16.056 57.0641 16.4127 57.4765 16.6752C57.8743 16.9015 58.306 17.0265 58.797 17.0265ZM65.1542 19.0016V9.57103H67.6344L67.719 10.7967C68.0307 10.3269 68.4728 9.94237 68.9997 9.68297C69.5265 9.42357 70.1189 9.29868 70.7156 9.32122C71.398 9.31035 72.0687 9.48525 72.6438 9.82405C73.219 10.1629 73.673 10.6505 73.9492 11.2261C74.2455 11.8194 74.4063 12.5532 74.4063 13.3729V19.025H71.706V13.7008C71.706 13.045 71.5452 12.5298 71.2235 12.1473C70.9019 11.7725 70.4617 11.5696 69.903 11.5696C69.4967 11.5696 69.1412 11.6476 68.828 11.8194C68.5317 11.9989 68.2862 12.2253 68.1 12.5454C67.9117 12.8689 67.8183 13.2322 67.8291 13.5993V19.0016H65.1542ZM75.7523 19.0016V5.6989H78.4526V10.7733C78.8184 10.318 79.2942 9.94753 79.8422 9.69141C80.3903 9.43529 80.9956 9.30052 81.61 9.2978C82.2479 9.28919 82.8797 9.41314 83.4585 9.66046C84.0373 9.90777 84.5484 10.2721 84.9537 10.7264C85.8599 11.6964 86.34 12.944 86.2996 14.2238C86.3143 15.533 85.8152 16.8029 84.8944 17.7993C84.4688 18.2594 83.939 18.6279 83.3423 18.8788C82.7456 19.1297 82.0965 19.2568 81.4407 19.2514C80.8237 19.2669 80.2125 19.1375 79.6646 18.8753C79.1167 18.6131 78.6501 18.2267 78.3087 17.7525L78.2325 18.9781L75.7523 19.0016ZM80.9836 17.0265C81.4746 17.0265 81.9063 16.9015 82.3041 16.6752C82.6851 16.4253 82.9813 16.0975 83.2268 15.6993C83.4384 15.3012 83.5485 14.825 83.5485 14.2941C83.5815 13.833 83.4842 13.372 83.2661 12.956C83.048 12.54 82.7165 12.1833 82.3041 11.9209C81.9079 11.6932 81.4504 11.5725 80.9836 11.5725C80.5168 11.5725 80.0593 11.6932 79.6631 11.9209C79.2906 12.1707 78.9859 12.4986 78.7489 12.8967C78.5126 13.3319 78.4018 13.8158 78.4272 14.3019C78.3942 14.763 78.4915 15.2241 78.7096 15.64C78.9277 16.056 79.2592 16.4127 79.6715 16.6752C80.0694 16.9015 80.4757 17.0265 80.9836 17.0265Z" fill="#FF385C"/>
</g>
<defs>
<clipPath id="clip0_17_347">
<rect width="86.3424" height="24.9815" fill="white" transform="translate(0.253845 0.445587)"/>
</clipPath>
</defs>
</svg>
