<svg width="81" height="26" viewBox="0 0 81 26" fill="none" xmlns="http://www.w3.org/2000/svg">
<g clip-path="url(#clip0_17_360)">
<path d="M34.2889 13.7886C34.2889 17.2561 31.3291 19.8113 27.6968 19.8113C24.0645 19.8113 21.1048 17.2561 21.1048 13.7886C21.1048 10.2966 24.0645 7.76587 27.6968 7.76587C31.3291 7.76587 34.2889 10.2966 34.2889 13.7886ZM31.4032 13.7886C31.4032 11.6217 29.6878 10.1391 27.6968 10.1391C25.7059 10.1391 23.9905 11.6217 23.9905 13.7886C23.9905 15.9337 25.7059 17.4381 27.6968 17.4381C29.6878 17.4381 31.4032 15.931 31.4032 13.7886Z" fill="#EA4335"/>
<path d="M48.51 13.7886C48.51 17.2561 45.5502 19.8113 41.9179 19.8113C38.2856 19.8113 35.3259 17.2561 35.3259 13.7886C35.3259 10.2993 38.2856 7.76587 41.9179 7.76587C45.5502 7.76587 48.51 10.2966 48.51 13.7886ZM45.6243 13.7886C45.6243 11.6217 43.9089 10.1391 41.9179 10.1391C39.927 10.1391 38.2116 11.6217 38.2116 13.7886C38.2116 15.9337 39.927 17.4381 41.9179 17.4381C43.9089 17.4381 45.6243 15.931 45.6243 13.7886Z" fill="#FBBC05"/>
<path d="M62.1386 8.12973V18.9424C62.1386 23.3902 59.2766 25.2068 55.8931 25.2068C52.7082 25.2068 50.7913 23.2544 50.0684 21.6578L52.5808 20.6992C53.0282 21.6795 54.1244 22.8362 55.8902 22.8362C58.0559 22.8362 59.398 21.6116 59.398 19.3062V18.44H59.2973C58.6514 19.1705 57.4071 19.8086 55.8368 19.8086C52.5512 19.8086 49.541 17.1855 49.541 13.8103C49.541 10.4107 52.5512 7.76587 55.8368 7.76587C57.4041 7.76587 58.6485 8.40398 59.2973 9.1127H59.398V8.13245H62.1386V8.12973ZM59.6025 13.8103C59.6025 11.6896 58.0589 10.1391 56.0946 10.1391C54.1036 10.1391 52.4356 11.6896 52.4356 13.8103C52.4356 15.9093 54.1036 17.4381 56.0946 17.4381C58.0589 17.4381 59.6025 15.9093 59.6025 13.8103Z" fill="#4285F4"/>
<path d="M66.6568 1.79202V19.442H63.8422V1.79202H66.6568Z" fill="#34A853"/>
<path d="M77.6249 15.7708L79.8647 17.1394C79.1418 18.1196 77.3997 19.8086 74.3896 19.8086C70.6565 19.8086 67.8686 17.1638 67.8686 13.7859C67.8686 10.2043 70.6802 7.76315 74.0666 7.76315C77.4767 7.76315 79.1448 10.2504 79.6899 11.5946L79.9891 12.2788L71.2046 15.6133C71.8772 16.8217 72.923 17.4381 74.3896 17.4381C75.8591 17.4381 76.8783 16.7755 77.6249 15.7708ZM70.7306 13.6039L76.6027 11.3692C76.2798 10.617 75.308 10.093 74.1644 10.093C72.6979 10.093 70.6565 11.2796 70.7306 13.6039Z" fill="#EA4335"/>
<path d="M10.4509 12.222V9.66678H19.8457C19.9376 10.1121 19.985 10.6389 19.985 11.2091C19.985 13.1262 19.4132 15.4967 17.5703 17.1857C15.7779 18.8964 13.4877 19.8087 10.4539 19.8087C4.8306 19.8087 0.102081 15.6108 0.102081 10.457C0.102081 5.30316 4.8306 1.10518 10.4539 1.10518C13.5647 1.10518 15.7809 2.22392 17.4459 3.68208L15.4787 5.48509C14.2847 4.45868 12.667 3.66035 10.4509 3.66035C6.34455 3.66035 3.13295 6.69344 3.13295 10.457C3.13295 14.2205 6.34455 17.2536 10.4509 17.2536C13.1144 17.2536 14.6313 16.2733 15.6031 15.3827C16.3912 14.6604 16.9097 13.6285 17.1141 12.2192L10.4509 12.222Z" fill="#4285F4"/>
</g>
<defs>
<clipPath id="clip0_17_360">
<rect width="80.5863" height="24.9815" fill="white" transform="translate(-0.00466919 0.977409)"/>
</clipPath>
</defs>
</svg>
