<svg width="118" height="25" viewBox="0 0 118 25" fill="none" xmlns="http://www.w3.org/2000/svg">
<g clip-path="url(#clip0_17_367)">
<path d="M41.5673 14.2304L40.8697 16.0646H40.8116C40.6953 15.651 40.4822 15.0217 40.1334 14.2664L36.3935 5.545H32.731V19.4453H35.1533V10.8678C35.1533 10.3283 35.1533 9.71689 35.1339 8.96163C35.1145 8.584 35.0758 8.29629 35.0564 8.0805H35.1145C35.2308 8.61997 35.3664 9.01558 35.4633 9.26733L39.959 19.4093H41.6642L46.1211 9.17742C46.218 8.94365 46.3149 8.47611 46.4118 8.0805H46.4699C46.4118 9.10549 46.373 10.0226 46.3536 10.58V19.3913H48.9309V5.50904H45.4041L41.5673 14.2304ZM51.3725 9.42917H53.8916V19.3913H51.3725V9.42917ZM52.6514 5.22132C52.2251 5.22132 51.8763 5.36518 51.5857 5.61693C51.295 5.86868 51.14 6.19236 51.14 6.58797C51.14 6.9656 51.295 7.28928 51.5857 7.54103C51.8763 7.79278 52.2251 7.91866 52.6514 7.91866C53.0777 7.91866 53.4459 7.7748 53.7172 7.54103C54.0079 7.28928 54.1629 6.9656 54.1629 6.58797C54.1629 6.21034 54.0079 5.88666 53.7172 5.61693C53.4653 5.36518 53.0971 5.22132 52.6514 5.22132ZM62.8248 9.33926C62.3597 9.24935 61.8753 9.1954 61.4102 9.1954C60.2669 9.1954 59.2205 9.42917 58.3485 9.89671C57.4765 10.3642 56.7789 11.0116 56.3332 11.8208C55.8681 12.648 55.6356 13.6011 55.6356 14.698C55.6356 15.651 55.8681 16.4962 56.3138 17.2694C56.7595 18.0247 57.3796 18.6361 58.2129 19.0497C59.0074 19.4633 59.9375 19.6791 60.9839 19.6791C62.1853 19.6791 63.2123 19.4453 64.0262 19.0137L64.0456 18.9957V16.8379L63.9487 16.9098C63.5805 17.1615 63.1542 17.3773 62.7279 17.5032C62.2822 17.6471 61.8753 17.719 61.5265 17.719C60.5188 17.719 59.7243 17.4493 59.1624 16.8558C58.581 16.2804 58.2904 15.4892 58.2904 14.5002C58.2904 13.4752 58.581 12.666 59.1818 12.0726C59.7825 11.4791 60.577 11.1734 61.5458 11.1734C62.3597 11.1734 63.193 11.4252 63.9487 11.9287L64.0456 12.0006V9.71689L64.0262 9.6989C63.6968 9.57303 63.3286 9.42917 62.8248 9.33926ZM71.1379 9.26733C70.5178 9.26733 69.9364 9.44715 69.4326 9.82478C69.0063 10.1485 68.7156 10.616 68.4637 11.1734H68.4443V9.42917H65.9252V19.3913H68.4443V14.3024C68.4443 13.4392 68.6381 12.7199 69.0644 12.1984C69.4907 11.659 70.0333 11.3892 70.6922 11.3892C70.9247 11.3892 71.1572 11.4432 71.4479 11.4791C71.7192 11.5511 71.913 11.623 72.0486 11.7129L72.1455 11.7848V9.44715L72.0874 9.42917C71.913 9.32128 71.5642 9.26733 71.1379 9.26733ZM77.9976 9.21338C76.2342 9.21338 74.8196 9.6989 73.8314 10.652C72.8237 11.605 72.3393 12.9177 72.3393 14.5721C72.3393 16.1186 72.8431 17.3773 73.812 18.2944C74.7809 19.1935 76.0986 19.6611 77.7457 19.6611C79.4703 19.6611 80.8461 19.1756 81.8344 18.2045C82.8421 17.2335 83.3265 15.9388 83.3265 14.3383C83.3265 12.7559 82.8614 11.4971 81.9119 10.58C81.0012 9.66294 79.6641 9.21338 77.9976 9.21338ZM80.0129 16.8738C79.5478 17.4313 78.8115 17.701 77.9007 17.701C76.99 17.701 76.2536 17.4313 75.7304 16.8379C75.2072 16.2804 74.9553 15.4712 74.9553 14.4462C74.9553 13.3853 75.2266 12.5761 75.7304 12.0006C76.2536 11.4252 76.9706 11.1375 77.8813 11.1375C78.7727 11.1375 79.4703 11.4072 79.9741 11.9647C80.478 12.5221 80.7493 13.3313 80.7493 14.3923C80.7105 15.4712 80.4973 16.3164 80.0129 16.8738ZM88.9461 13.5651C88.1516 13.2594 87.6478 13.0256 87.4152 12.8278C87.2214 12.648 87.1246 12.3962 87.1246 12.0726C87.1246 11.8028 87.2408 11.5331 87.5315 11.3533C87.8222 11.1734 88.1516 11.0835 88.636 11.0835C89.0623 11.0835 89.508 11.1555 89.9343 11.2634C90.3606 11.3713 90.7482 11.5331 91.0583 11.7489L91.1551 11.8208V9.62698L91.097 9.60899C90.8063 9.5011 90.4188 9.39321 89.9537 9.30329C89.4886 9.23137 89.0623 9.1954 88.7135 9.1954C87.5121 9.1954 86.5238 9.46513 85.7487 10.0585C84.9736 10.616 84.6054 11.3713 84.6054 12.2524C84.6054 12.7199 84.683 13.1335 84.8574 13.4752C85.0318 13.8168 85.2837 14.1405 85.6325 14.4103C85.9813 14.662 86.4851 14.9497 87.1827 15.2195C87.764 15.4532 88.2097 15.6331 88.481 15.7769C88.7523 15.9208 88.9267 16.0826 89.0623 16.2085C89.1592 16.3523 89.2174 16.5322 89.2174 16.7659C89.2174 17.4313 88.6748 17.755 87.5702 17.755C87.1439 17.755 86.6982 17.683 86.175 17.5212C85.6518 17.3594 85.1674 17.1256 84.7605 16.8558L84.6636 16.7839V19.0677L84.7217 19.0856C85.0899 19.2475 85.5356 19.3554 86.0782 19.4813C86.6207 19.5712 87.1052 19.6431 87.5315 19.6431C88.8298 19.6431 89.8956 19.3734 90.6513 18.7799C91.4264 18.2045 91.8334 17.4672 91.8334 16.5142C91.8334 15.8488 91.6396 15.2554 91.2133 14.8059C90.6513 14.3743 89.9537 13.9247 88.9461 13.5651ZM98.4799 9.21338C96.7166 9.21338 95.302 9.6989 94.3137 10.652C93.3255 11.605 92.8216 12.9177 92.8216 14.5721C92.8216 16.1186 93.3255 17.3773 94.2943 18.2944C95.2632 19.1935 96.5809 19.6611 98.228 19.6611C99.9527 19.6611 101.328 19.1756 102.317 18.2045C103.324 17.2335 103.809 15.9388 103.809 14.3383C103.809 12.7559 103.344 11.4971 102.394 10.58C101.484 9.66294 100.146 9.21338 98.4799 9.21338ZM100.476 16.8738C100.011 17.4313 99.2744 17.701 98.3637 17.701C97.4335 17.701 96.7166 17.4313 96.1934 16.8379C95.6702 16.2804 95.4183 15.4712 95.4183 14.4462C95.4183 13.3853 95.6895 12.5761 96.1934 12.0006C96.7166 11.4252 97.4335 11.1375 98.3443 11.1375C99.2163 11.1375 99.9333 11.4072 100.437 11.9647C100.941 12.5221 101.212 13.3313 101.212 14.3923C101.212 15.4712 100.96 16.3164 100.476 16.8738ZM117.276 11.3533V9.42917H114.738V6.48008L114.66 6.49806L112.258 7.1634L112.199 7.18139V9.42917H108.401V8.17041C108.401 7.59498 108.556 7.14542 108.828 6.85771C109.099 6.56999 109.506 6.42613 110.01 6.42613C110.359 6.42613 110.727 6.49806 111.134 6.6599L111.231 6.71385V4.68185L111.172 4.66387C110.824 4.55598 110.359 4.48405 109.758 4.48405C109.002 4.48405 108.343 4.64589 107.743 4.91562C107.142 5.22132 106.696 5.63491 106.367 6.19236C106.037 6.73183 105.863 7.34323 105.863 8.04454V9.42917H104.1V11.3353H105.863V19.3913H108.401V11.3533H112.199V16.4782C112.199 18.5821 113.265 19.6431 115.397 19.6431C115.746 19.6431 116.114 19.5892 116.463 19.5352C116.831 19.4633 117.102 19.3734 117.257 19.3014L117.276 19.2835V17.3593L117.18 17.4313C117.025 17.5212 116.889 17.5931 116.656 17.6471C116.463 17.701 116.288 17.719 116.153 17.719C115.649 17.719 115.3 17.6111 115.048 17.3414C114.815 17.0896 114.699 16.676 114.699 16.0646V11.3533H117.276Z" fill="#737373"/>
<path d="M0.253845 0.869614H12.1324V11.8927H0.253845V0.869614Z" fill="#F25022"/>
<path d="M13.3725 0.869614H25.2511V11.8927H13.3725V0.869614Z" fill="#7FBA00"/>
<path d="M0.253845 13.0436H12.1324V24.0667H0.253845V13.0436Z" fill="#00A4EF"/>
<path d="M13.3725 13.0436H25.2511V24.0667H13.3725V13.0436Z" fill="#FFB900"/>
</g>
<defs>
<clipPath id="clip0_17_367">
<rect width="117.042" height="23.1971" fill="white" transform="translate(0.253845 0.869614)"/>
</clipPath>
</defs>
</svg>
