<svg width="81" height="22" viewBox="0 0 81 22" fill="none" xmlns="http://www.w3.org/2000/svg">
<g clip-path="url(#clip0_17_349)">
<path d="M8.72239 3.77447V9.81442H2.80478V3.77447H-0.00466919V18.1924H2.80478V12.3486H8.72239V18.1924H11.5318V3.77447H8.72239Z" fill="#33475B"/>
<path d="M20.5232 13.5318C20.5232 14.1096 20.2783 14.6638 19.8424 15.0724C19.4065 15.481 18.8154 15.7105 18.1989 15.7105C17.5825 15.7105 16.9913 15.481 16.5554 15.0724C16.1196 14.6638 15.8747 14.1096 15.8747 13.5318V7.35637H13.2098V13.5318C13.2098 14.771 13.7349 15.9594 14.6697 16.8356C15.6044 17.7118 16.8722 18.204 18.1941 18.204C19.516 18.204 20.7838 17.7118 21.7186 16.8356C22.6533 15.9594 23.1784 14.771 23.1784 13.5318V7.35637H20.5232V13.5318Z" fill="#33475B"/>
<path d="M40.2679 7.9925C40.2679 6.7267 41.1613 6.32542 42.14 6.32542C42.9287 6.32542 43.9708 6.88799 44.6521 7.57057L46.3975 5.64284C45.5262 4.53833 43.7588 3.77447 42.3121 3.77447C39.4214 3.77447 37.3305 5.36155 37.3305 7.9925C37.3305 12.8737 43.6955 11.3254 43.6955 14.057C43.6955 14.8995 42.8227 15.644 41.8234 15.644C40.2473 15.644 39.7366 14.9215 39.0126 14.1576L37.0758 16.0453C38.3147 17.4711 39.8426 18.195 41.6734 18.195C44.4195 18.195 46.6288 16.5886 46.6288 14.0776C46.6288 8.6583 40.2638 10.3422 40.2638 7.9925" fill="#33475B"/>
<path d="M79.6442 15.8892C78.0694 15.8892 77.6221 15.2505 77.6221 14.2724V9.94345H80.0695V7.74992H77.6221V4.85575L74.92 5.99252V14.8105C74.92 17.066 76.58 18.2027 78.8568 18.2027C79.2139 18.2088 79.5707 18.182 79.9222 18.1227L80.5816 15.8479C80.2842 15.8673 79.9429 15.8866 79.6442 15.8866" fill="#33475B"/>
<path d="M30.6667 7.42873C29.3466 7.42873 28.4257 7.78744 27.5351 8.60679V3.86102H24.8661V12.6571C24.8661 15.95 27.4057 18.2054 30.2592 18.2054C33.4252 18.2054 36.2099 15.91 36.2099 12.8184C36.2099 9.76549 33.6468 7.43002 30.6667 7.43002V7.42873ZM30.6502 15.688C30.0512 15.688 29.4657 15.5215 28.9677 15.2096C28.4697 14.8977 28.0816 14.4544 27.8524 13.9356C27.6232 13.4169 27.5632 12.8462 27.68 12.2955C27.7969 11.7449 28.0853 11.2391 28.5088 10.8421C28.9323 10.4451 29.4719 10.1747 30.0594 10.0652C30.6468 9.95566 31.2557 10.0119 31.809 10.2267C32.3624 10.4416 32.8354 10.8054 33.1681 11.2722C33.5009 11.7391 33.6785 12.2879 33.6785 12.8493C33.6785 13.6022 33.3594 14.3242 32.7915 14.8566C32.2236 15.3889 31.4533 15.688 30.6502 15.688Z" fill="#33475B"/>
<path d="M59.6476 12.6867C59.6476 9.58991 56.8684 7.2996 53.6969 7.2996C50.8434 7.2996 48.3038 9.55507 48.3038 12.8479V21.6492H50.9728V16.8969C51.8621 17.715 52.7843 18.075 54.103 18.075C57.0831 18.075 59.6462 15.7408 59.6462 12.6867H59.6476ZM57.1203 12.6557C57.1203 13.2171 56.9427 13.766 56.6099 14.2328C56.2772 14.6996 55.8042 15.0634 55.2509 15.2783C54.6975 15.4931 54.0886 15.5494 53.5012 15.4398C52.9138 15.3303 52.3742 15.0599 51.9507 14.6629C51.5271 14.2659 51.2387 13.7601 51.1219 13.2095C51.005 12.6588 51.065 12.0881 51.2942 11.5694C51.5234 11.0507 51.9116 10.6073 52.4096 10.2954C52.9076 9.98349 53.4931 9.817 54.092 9.817C54.8952 9.817 55.6654 10.1161 56.2333 10.6484C56.8013 11.1808 57.1203 11.9028 57.1203 12.6557Z" fill="#33475B"/>
<path d="M68.2702 7.1782V4.66468C68.6245 4.50947 68.9246 4.26311 69.1354 3.95427C69.3462 3.64542 69.459 3.28681 69.4608 2.92017V2.86211C69.4608 2.34879 69.2433 1.8565 68.8561 1.49353C68.4689 1.13056 67.9437 0.926643 67.3961 0.926643H67.3341C66.7865 0.926643 66.2613 1.13056 65.8741 1.49353C65.4869 1.8565 65.2694 2.34879 65.2694 2.86211V2.92017C65.2712 3.28681 65.3841 3.64542 65.5949 3.95427C65.8057 4.26311 66.1057 4.50947 66.4601 4.66468V7.1782C65.4416 7.32426 64.4824 7.71998 63.6795 8.32529L56.3262 2.9563C56.3783 2.77925 56.406 2.59671 56.4088 2.41308C56.4096 1.98174 56.2739 1.55986 56.0189 1.20081C55.764 0.841752 55.4011 0.561652 54.9762 0.395936C54.5514 0.23022 54.0837 0.186334 53.6322 0.269827C53.1808 0.353321 52.7659 0.560443 52.44 0.864996C52.1141 1.16955 51.892 1.55785 51.8016 1.98079C51.7111 2.40372 51.7566 2.84229 51.9321 3.24102C52.1076 3.63975 52.4054 3.98072 52.7877 4.22081C53.1699 4.4609 53.6196 4.58933 54.0798 4.58984C54.4821 4.58815 54.877 4.48761 55.225 4.29823L62.4668 9.57948C61.8161 10.5007 61.4766 11.5844 61.4926 12.6892C61.5085 13.7939 61.8792 14.8686 62.5563 15.773L60.3539 17.8375C60.1758 17.7842 59.9902 17.7559 59.8033 17.7536C59.4255 17.7539 59.0563 17.8591 58.7423 18.056C58.4283 18.2529 58.1837 18.5326 58.0392 18.8598C57.8948 19.187 57.8571 19.547 57.9308 19.8943C58.0046 20.2416 58.1865 20.5606 58.4537 20.811C58.7208 21.0613 59.0611 21.2319 59.4316 21.301C59.8021 21.3702 60.1861 21.3348 60.5352 21.1994C60.8842 21.064 61.1826 20.8347 61.3927 20.5404C61.6027 20.246 61.715 19.9 61.7152 19.5458C61.7129 19.3706 61.6827 19.1967 61.6258 19.0297L63.8048 16.9872C64.5153 17.4997 65.3415 17.853 66.2202 18.02C67.0989 18.187 68.0067 18.1633 68.8741 17.9506C69.7415 17.738 70.5454 17.3421 71.2244 16.7933C71.9033 16.2444 72.4393 15.5572 72.7912 14.7842C73.1431 14.0112 73.3016 13.173 73.2545 12.3338C73.2075 11.4945 72.9561 10.6765 72.5197 9.94234C72.0834 9.2082 71.4735 8.57741 70.7369 8.09829C70.0004 7.61918 69.1565 7.30445 68.2702 7.1782ZM67.3672 15.4439C66.7711 15.4434 66.1886 15.2773 65.6933 14.9665C65.1979 14.6558 64.812 14.2144 64.5842 13.6981C64.3564 13.1817 64.297 12.6137 64.4135 12.0658C64.5301 11.5178 64.8172 11.0146 65.2388 10.6196C65.6604 10.2246 66.1974 9.95561 66.782 9.84664C67.3666 9.73767 67.9725 9.7936 68.5232 10.0074C69.0739 10.2211 69.5447 10.5831 69.876 11.0476C70.2072 11.512 70.3842 12.0581 70.3845 12.6169C70.3845 13.3663 70.0669 14.0851 69.5015 14.615C68.9362 15.1449 68.1694 15.4427 67.3699 15.4427" fill="#FF7A59"/>
</g>
<defs>
<clipPath id="clip0_17_349">
<rect width="80.5863" height="21.4127" fill="white" transform="translate(-0.00466919 0.22998)"/>
</clipPath>
</defs>
</svg>
